<svg width="37" height="37" viewBox="0 0 37 37" fill="none" xmlns="http://www.w3.org/2000/svg">
<path d="M0 9.25C0 8.02337 0.487275 6.84699 1.35463 5.97963C2.22199 5.11228 3.39837 4.625 4.625 4.625H32.375C33.6016 4.625 34.778 5.11228 35.6454 5.97963C36.5127 6.84699 37 8.02337 37 9.25V27.75C37 28.9766 36.5127 30.153 35.6454 31.0204C34.778 31.8877 33.6016 32.375 32.375 32.375H4.625C3.39837 32.375 2.22199 31.8877 1.35463 31.0204C0.487275 30.153 0 28.9766 0 27.75V9.25ZM4.625 6.9375C4.01169 6.9375 3.42349 7.18114 2.98982 7.61482C2.55614 8.04849 2.3125 8.63669 2.3125 9.25V9.75181L18.5 19.4643L34.6875 9.75181V9.25C34.6875 8.63669 34.4439 8.04849 34.0102 7.61482C33.5765 7.18114 32.9883 6.9375 32.375 6.9375H4.625ZM34.6875 12.4482L23.8002 18.981L34.6875 25.6803V12.4482ZM34.6089 28.3489L21.5664 20.3223L18.5 22.1607L15.4336 20.3223L2.39113 28.3466C2.52253 28.8387 2.81273 29.2737 3.21666 29.5839C3.6206 29.8942 4.11566 30.0624 4.625 30.0625H32.375C32.884 30.0626 33.3789 29.8947 33.7828 29.5848C34.1867 29.275 34.477 28.8406 34.6089 28.3489ZM2.3125 25.6803L13.1998 18.981L2.3125 12.4482V25.6803Z" fill="white"/>
</svg>
