<svg width="869" height="92" viewBox="0 0 869 92" fill="none" xmlns="http://www.w3.org/2000/svg">
<g clip-path="url(#clip0_11_263)">
<path d="M0 63.6678C25.8333 50.6678 78 58.8677 100 67.6677C127.5 78.6677 216.273 82.2539 233 63.6678C251 43.6679 108.501 50.8701 127.5 37.6677C157 17.1677 295.5 112.168 257.5 67.6677C230.496 36.0444 413 66.8433 398.5 46.6676C374.785 13.6699 341 76.1677 387 67.6677C421.365 61.3177 490 23.6676 522 37.6676C560.219 54.3883 454.116 78.5047 467 48.6677C473.619 33.3396 569.173 69.6702 636 76.1677C665.088 78.9958 760 86.1677 756.5 67.6677" stroke="#354B7A" stroke-width="4"/>
<g clip-path="url(#clip1_11_263)">
<g filter="url(#filter0_d_11_263)">
<path d="M766.321 57.2679L762.606 63.1361C762.188 63.7976 762.653 64.6553 763.435 64.6626L769.999 64.724L770.335 64.7271C771.399 64.553 772.077 62.6833 770.448 62.3845C768.441 62.0164 770.924 61.0114 770.206 59.911C769.489 58.8106 768.165 59.7592 767.777 59.4654C767.389 59.1715 767.933 58.6536 768.135 57.6007C768.279 56.8521 766.85 56.4324 766.321 57.2679Z" fill="#354B7A"/>
<path d="M834.74 13.1438L842.993 28.2206L852.539 22.8676C853.02 22.598 853.196 21.9942 852.934 21.5147L845.637 8.18505C845.372 7.69968 844.758 7.52645 844.272 7.79934L834.74 13.1438Z" fill="#912224"/>
<path d="M778.347 64.8021L836.708 31.9117L828.455 16.8349L770.992 49.89L778.347 64.8021Z" fill="#FFEB7C"/>
<path d="M828.455 16.8349L836.708 31.9117L842.993 28.2206L834.74 13.1438L828.455 16.8349Z" fill="#414141"/>
<path d="M770.992 49.89L766.321 57.2679C766.85 56.4324 768.279 56.8521 768.135 57.6007C767.933 58.6536 767.389 59.1715 767.777 59.4654C768.165 59.7592 769.489 58.8106 770.206 59.911C770.924 61.0114 768.441 62.0164 770.448 62.3845C772.077 62.6833 771.399 64.553 770.335 64.7271L778.347 64.8021L770.992 49.89Z" fill="#BE7500"/>
<path d="M778.347 64.8021L836.708 31.9117M778.347 64.8021L770.335 64.7271M778.347 64.8021L770.992 49.89M836.708 31.9117L828.455 16.8349M836.708 31.9117L842.993 28.2206M828.455 16.8349L770.992 49.89M828.455 16.8349L834.74 13.1438M770.992 49.89L766.321 57.2679M834.74 13.1438L842.993 28.2206M834.74 13.1438L844.272 7.79934C844.758 7.52645 845.372 7.69968 845.637 8.18505L852.934 21.5147C853.196 21.9942 853.02 22.598 852.539 22.8676L842.993 28.2206M766.321 57.2679L762.606 63.1361C762.188 63.7976 762.653 64.6553 763.435 64.6626L769.999 64.724M766.321 57.2679C766.85 56.4324 768.279 56.8521 768.135 57.6007C767.933 58.6536 767.389 59.1715 767.777 59.4654C768.165 59.7592 769.489 58.8106 770.206 59.911C770.924 61.0114 768.441 62.0164 770.448 62.3845C772.077 62.6833 771.399 64.553 770.335 64.7271M769.999 64.724L770.335 64.7271M769.999 64.724C770.113 64.745 770.226 64.7449 770.335 64.7271" stroke="#354B7A"/>
</g>
<path d="M773.863 54.2916L831.175 21.3923" stroke="#354B7A"/>
<path d="M776.11 60.303L833.837 27.5098" stroke="#354B7A"/>
</g>
</g>
<defs>
<filter id="filter0_d_11_263" x="761.947" y="5.57065" width="100.209" height="65.332" filterUnits="userSpaceOnUse" color-interpolation-filters="sRGB">
<feFlood flood-opacity="0" result="BackgroundImageFix"/>
<feColorMatrix in="SourceAlpha" type="matrix" values="0 0 0 0 0 0 0 0 0 0 0 0 0 0 0 0 0 0 127 0" result="hardAlpha"/>
<feOffset dx="5" dy="2"/>
<feGaussianBlur stdDeviation="1.8"/>
<feComposite in2="hardAlpha" operator="out"/>
<feColorMatrix type="matrix" values="0 0 0 0 0.207843 0 0 0 0 0.294118 0 0 0 0 0.478431 0 0 0 0.1 0"/>
<feBlend mode="normal" in2="BackgroundImageFix" result="effect1_dropShadow_11_263"/>
<feBlend mode="normal" in="SourceGraphic" in2="effect1_dropShadow_11_263" result="shape"/>
</filter>
<clipPath id="clip0_11_263">
<rect width="869" height="92" fill="white"/>
</clipPath>
<clipPath id="clip1_11_263">
<rect width="103.059" height="105.095" fill="white" transform="translate(774.334 -27) rotate(16.2076)"/>
</clipPath>
</defs>
</svg>
