<svg width="37" height="37" viewBox="0 0 37 37" fill="none" xmlns="http://www.w3.org/2000/svg">
<path d="M26.2083 3.08325H10.7916C6.53445 3.08325 3.08331 6.53439 3.08331 10.7916V26.2083C3.08331 30.4654 6.53445 33.9166 10.7916 33.9166H26.2083C30.4655 33.9166 33.9166 30.4654 33.9166 26.2083V10.7916C33.9166 6.53439 30.4655 3.08325 26.2083 3.08325Z" stroke="white" stroke-width="2" stroke-linecap="round" stroke-linejoin="round"/>
<path d="M24.6667 17.5287C24.8569 18.8118 24.6378 20.1221 24.0404 21.2735C23.443 22.4248 22.4978 23.3584 21.3392 23.9416C20.1806 24.5247 18.8676 24.7277 17.587 24.5216C16.3064 24.3156 15.1234 23.7109 14.2062 22.7938C13.289 21.8766 12.6844 20.6936 12.4784 19.413C12.2723 18.1324 12.4753 16.8194 13.0584 15.6608C13.6416 14.5022 14.5752 13.557 15.7265 12.9596C16.8778 12.3622 18.1882 12.1431 19.4712 12.3333C20.78 12.5274 21.9916 13.1372 22.9272 14.0728C23.8627 15.0083 24.4726 16.22 24.6667 17.5287Z" stroke="white" stroke-width="2" stroke-linecap="round" stroke-linejoin="round"/>
<path d="M26.9792 10.0208H26.9936" stroke="white" stroke-width="2" stroke-linecap="round" stroke-linejoin="round"/>
</svg>
