<svg width="253" height="94" viewBox="0 0 253 94" fill="none" xmlns="http://www.w3.org/2000/svg">
<path d="M248.428 0H3.04819C1.36472 0 0 1.35759 0 3.03226V4.54839C0 6.22306 1.36472 7.58064 3.04819 7.58064H248.428C250.111 7.58064 251.476 6.22306 251.476 4.54839V3.03226C251.476 1.35759 250.111 0 248.428 0Z" fill="#354B7A"/>
<path d="M16.7651 3.03226C16.7651 1.35759 18.1297 0 19.8133 0H33.5301C35.2136 0 36.5783 1.35759 36.5783 3.03226V80.3548C36.5783 82.0295 35.2136 83.3871 33.5301 83.3871H19.8133C18.1297 83.3871 16.7651 82.0295 16.7651 80.3548V3.03226Z" fill="white"/>
<mask id="mask0_1_9" style="mask-type:luminance" maskUnits="userSpaceOnUse" x="16" y="0" width="21" height="84">
<path d="M16.7651 3.03226C16.7651 1.35759 18.1297 0 19.8133 0H33.5301C35.2136 0 36.5783 1.35759 36.5783 3.03226V80.3548C36.5783 82.0295 35.2136 83.3871 33.5301 83.3871H19.8133C18.1297 83.3871 16.7651 82.0295 16.7651 80.3548V3.03226Z" fill="white"/>
</mask>
<g mask="url(#mask0_1_9)">
<path d="M12.1928 1.7643e-05C12.1928 -4.18665 15.6046 -7.58063 19.8133 -7.58063H33.5301C37.7388 -7.58063 41.1506 -4.18665 41.1506 1.7643e-05L32.006 7.58066H21.3373L12.1928 1.7643e-05ZM41.1506 80.3549C41.1506 84.5415 37.7388 87.9355 33.5301 87.9355H19.8133C15.6046 87.9355 12.1928 84.5415 12.1928 80.3549L21.3373 78.8387H32.006L41.1506 80.3549ZM19.8133 87.9355C15.6046 87.9355 12.1928 84.5415 12.1928 80.3549V1.7643e-05C12.1928 -4.18665 15.6046 -7.58063 19.8133 -7.58063L21.3373 7.58066V78.8387L19.8133 87.9355ZM33.5301 -7.58063C37.7388 -7.58063 41.1506 -4.18665 41.1506 1.7643e-05V80.3549C41.1506 84.5415 37.7388 87.9355 33.5301 87.9355L32.006 78.8387V7.58066L33.5301 -7.58063Z" fill="#354B7A"/>
</g>
<path d="M129.548 3.03226C129.548 1.35759 130.913 0 132.596 0H146.313C147.997 0 149.361 1.35759 149.361 3.03226V80.3548C149.361 82.0295 147.997 83.3871 146.313 83.3871H132.596C130.913 83.3871 129.548 82.0295 129.548 80.3548V3.03226Z" fill="white"/>
<mask id="mask1_1_9" style="mask-type:luminance" maskUnits="userSpaceOnUse" x="129" y="0" width="21" height="84">
<path d="M129.548 3.03226C129.548 1.35759 130.913 0 132.596 0H146.313C147.997 0 149.361 1.35759 149.361 3.03226V80.3548C149.361 82.0295 147.997 83.3871 146.313 83.3871H132.596C130.913 83.3871 129.548 82.0295 129.548 80.3548V3.03226Z" fill="white"/>
</mask>
<g mask="url(#mask1_1_9)">
<path d="M124.976 1.7643e-05C124.976 -4.18665 128.388 -7.58063 132.596 -7.58063H146.313C150.522 -7.58063 153.934 -4.18665 153.934 1.7643e-05L144.789 7.58066H134.12L124.976 1.7643e-05ZM153.934 80.3549C153.934 84.5415 150.522 87.9355 146.313 87.9355H132.596C128.388 87.9355 124.976 84.5415 124.976 80.3549L134.12 78.8387H144.789L153.934 80.3549ZM132.596 87.9355C128.388 87.9355 124.976 84.5415 124.976 80.3549V1.7643e-05C124.976 -4.18665 128.388 -7.58063 132.596 -7.58063L134.12 7.58066V78.8387L132.596 87.9355ZM146.313 -7.58063C150.522 -7.58063 153.934 -4.18665 153.934 1.7643e-05V80.3549C153.934 84.5415 150.522 87.9355 146.313 87.9355L144.789 78.8387V7.58066L146.313 -7.58063Z" fill="#354B7A"/>
</g>
<path d="M58.7355 80.0699C58.3384 80.1884 57.9472 80.115 57.5619 79.85C57.1766 79.5849 56.8823 79.1155 56.6793 78.4416C56.4414 77.6516 56.2187 76.4898 56.0113 74.9562C55.8272 73.4157 55.6164 71.364 55.379 68.8012C55.1962 70.4763 54.919 72.091 54.5471 73.6454C54.1987 75.1927 53.7299 76.5099 53.141 77.5973C52.5521 78.6845 51.8138 79.3604 50.9262 79.625C50.0618 79.8827 49.1896 79.7755 48.3091 79.3035C47.452 78.8247 46.768 77.7371 46.2569 76.0408C45.9699 75.0881 45.7297 73.9948 45.5362 72.761C45.3358 71.5038 45.1855 70.2445 45.0854 68.9828C44.9854 67.7211 44.9238 66.5872 44.9006 65.5811C44.8706 64.5518 44.8942 63.7851 44.9715 63.2809C45.023 62.8604 45.1129 62.5676 45.2414 62.4026C45.3631 62.2145 45.5639 62.0787 45.8442 61.9951C46.1713 61.8976 46.5636 61.9325 47.0214 62.1C47.4791 62.2674 47.806 62.6765 48.002 63.327C48.0511 63.4897 48.0848 63.8976 48.1032 64.5504C48.1381 65.1732 48.1683 65.9492 48.1938 66.8786C48.2355 67.7778 48.2866 68.7502 48.3469 69.7957C48.4074 70.8414 48.5028 71.8765 48.6333 72.9012C48.7872 73.919 48.9866 74.8345 49.2317 75.6479C49.3646 76.0894 49.5199 76.4356 49.6973 76.6866C49.8747 76.9375 50.1504 77.0074 50.5241 76.8959C50.8512 76.7984 51.1619 76.3512 51.4564 75.5543C51.7743 74.7505 52.0642 73.7271 52.3262 72.4841C52.6045 71.2109 52.8596 69.818 53.0913 68.3055C53.3463 66.7861 53.5674 65.2386 53.7547 63.6633C53.9655 62.0811 54.1388 60.586 54.2746 59.178C54.3356 58.704 54.457 58.3892 54.6393 58.2336C54.8146 58.0547 55.0307 57.927 55.2875 57.8505C55.708 57.7251 56.1343 57.7879 56.5664 58.0389C57.0148 58.2598 57.3194 58.6375 57.4804 59.1719C57.5854 59.5205 57.6974 60.1456 57.8161 61.0471C57.9585 61.9417 58.0877 63.0047 58.2042 64.2363C58.3369 65.4375 58.4557 66.7189 58.5604 68.0806C58.6884 69.4352 58.8131 70.7782 58.9341 72.1097C59.0481 73.4178 59.1424 74.6179 59.2168 75.71C59.3146 76.7951 59.3879 77.6722 59.4367 78.3414C59.4949 78.9571 59.4434 79.3777 59.2822 79.603C59.1514 79.8447 58.9691 80.0002 58.7355 80.0699ZM62.0009 66.0294C61.3562 66.1708 60.9416 65.8512 60.7573 65.0706C60.7247 64.8777 60.7868 64.6186 60.9433 64.2934C61.0928 63.9449 61.3159 63.7138 61.6127 63.5999C62.3157 63.3144 63.172 62.9453 64.1811 62.4924C65.2066 62.0095 66.3302 61.4719 67.5521 60.8797C67.4426 59.6715 67.3625 58.3913 67.3114 57.0389C67.2604 55.6866 67.255 54.3588 67.2951 53.0553C67.3282 51.7286 67.4196 50.511 67.5694 49.4029C67.7193 48.2946 67.9555 47.3884 68.278 46.6845C68.458 46.3523 68.6391 46.1084 68.8212 45.9528C68.9965 45.7739 69.1658 45.6602 69.3293 45.6114C69.6564 45.5139 69.9553 45.5768 70.2262 45.7998C70.5204 46.016 70.7201 46.2983 70.8251 46.6469C70.881 46.8329 70.902 47.0293 70.888 47.2361C70.8127 48.6765 70.7935 50.4296 70.8304 52.4952C70.8671 54.5608 70.9214 56.8112 70.993 59.2462C73.037 58.2569 75.0741 57.2445 77.1042 56.2088C79.1341 55.1731 80.871 54.2629 82.3148 53.478C82.7025 53.1597 83.0518 53.0936 83.3624 53.2796C83.6964 53.4585 83.9018 53.676 83.9788 53.9316C84.0768 54.2568 84.0568 54.5286 83.919 54.7471C83.8044 54.9585 83.6714 55.1501 83.5194 55.322L83.4949 55.3674C83.0837 55.6924 82.4495 56.1221 81.592 56.6562C80.7277 57.1672 79.7302 57.7431 78.5995 58.3841C77.4619 59.0018 76.2425 59.6439 74.9412 60.3104C73.6634 60.9699 72.3902 61.6026 71.1218 62.2087C71.2005 64.4136 71.285 66.6803 71.3756 69.0084C71.4823 71.3064 71.5786 73.5695 71.6642 75.7978C71.6827 76.704 71.5716 77.307 71.3309 77.6065C71.1206 77.9225 70.8519 78.1293 70.525 78.2268C70.1511 78.3382 69.7821 78.2962 69.4179 78.101C69.0769 77.8987 68.8703 77.3399 68.7982 76.4244L67.7753 63.7761C66.4369 64.403 65.2443 64.9231 64.1978 65.3364C63.1746 65.7427 62.4422 65.9737 62.0009 66.0294ZM89.8368 70.2665C88.4586 70.6774 87.2149 70.4783 86.1057 69.6695C84.9964 68.8604 84.1899 67.6195 83.6858 65.9464C83.5039 65.3423 83.3931 64.6788 83.3536 63.9562C83.3304 63.2035 83.3751 62.5063 83.4873 61.8652C83.2748 61.7512 83.0799 61.5688 82.9023 61.3177C82.7179 61.0436 82.5592 60.6856 82.4262 60.2441C82.0132 58.8733 81.8688 57.5488 81.9929 56.2708C82.1171 54.993 82.4387 53.8209 82.9575 52.7545C83.4693 51.665 84.1225 50.7485 84.9169 50.0053C85.7345 49.2549 86.6339 48.7337 87.615 48.4412C89.2269 47.9606 90.7099 48.1516 92.0644 49.014C93.4119 49.8532 94.4391 51.4463 95.1461 53.7932C95.5171 55.0249 95.7082 56.3352 95.7195 57.7248C95.7541 59.1072 95.6346 60.485 95.3609 61.8582C95.1106 63.2242 94.7166 64.494 94.1791 65.6672C93.6649 66.8334 93.0363 67.8311 92.2933 68.6605C91.5666 69.4596 90.7478 69.9948 89.8368 70.2665ZM85.4428 59.9906C85.639 60.1348 85.7825 60.3578 85.8735 60.66C85.9785 61.0086 86.0136 61.3779 85.9784 61.7683C85.9667 62.1517 85.9816 62.6663 86.0235 63.3123C86.0653 63.9582 86.2543 64.8389 86.5903 65.9542C86.9262 67.0696 87.5382 67.495 88.4258 67.2305C89.4068 66.9378 90.2023 66.2829 90.8122 65.2654C91.4152 64.2247 91.8582 62.9911 92.1412 61.5645C92.4243 60.1379 92.5309 58.6752 92.4613 57.1766C92.4081 55.6477 92.1924 54.2559 91.8145 53.0011C91.5694 52.1877 91.2461 51.6638 90.8444 51.4289C90.4358 51.171 89.8344 51.1602 89.0402 51.3971C88.2225 51.6409 87.4539 52.1738 86.7342 52.9961C86.031 53.7882 85.5274 54.736 85.2234 55.8396C84.9195 56.9432 84.9425 58.0759 85.2924 59.2377C85.3694 59.4933 85.4195 59.7444 85.4428 59.9906ZM104.404 66.2657C104.03 66.3772 103.669 66.32 103.321 66.0946C102.973 65.8691 102.719 65.4892 102.558 64.9547C102.439 64.5596 102.325 63.8847 102.215 62.9297C102.122 61.9445 101.995 60.8048 101.834 59.5105C101.697 58.2093 101.51 56.8721 101.275 55.4988C101.033 54.1023 100.726 52.7883 100.355 51.5567C100.173 50.9525 100.192 50.4659 100.411 50.0964C100.647 49.6969 100.964 49.4379 101.361 49.3195C101.735 49.2081 102.085 49.357 102.412 49.7659C102.739 50.1749 103.054 51.094 103.357 52.5231C103.718 49.8326 104.323 47.5754 105.174 45.7518C106.041 43.8978 107.022 42.4657 108.118 41.4554C109.207 40.4217 110.265 39.7517 111.293 39.4453C111.97 39.2433 112.503 39.2365 112.891 39.4248C113.295 39.5829 113.546 39.8246 113.644 40.15C113.777 40.5915 113.695 40.9957 113.398 41.3627C113.118 41.6996 112.583 42.1629 111.793 42.7529C110.884 43.4544 110.078 44.2011 109.375 44.9932C108.688 45.7551 108.085 46.6692 107.566 47.7355C107.071 48.7949 106.657 50.0832 106.325 51.6004C105.986 53.0942 105.738 54.8902 105.58 56.9882C105.423 59.0864 105.335 61.5818 105.315 64.4746C105.329 65.0275 105.251 65.4434 105.08 65.7222C104.933 65.9941 104.708 66.1752 104.404 66.2657Z" fill="#354B7A"/>
<path d="M164.384 79.2794C164.011 79.389 163.65 79.3302 163.302 79.1031C162.956 78.8758 162.703 78.4947 162.545 77.9593C162.428 77.5638 162.318 76.8882 162.213 75.9327C162.124 74.9471 162.004 73.8067 161.848 72.5117C161.717 71.2098 161.537 69.8717 161.309 68.4973C161.074 67.0996 160.774 65.7841 160.41 64.5507C160.23 63.9456 160.251 63.4591 160.472 63.0907C160.711 62.6924 161.028 62.4349 161.426 62.3185C161.801 62.2089 162.15 62.3594 162.475 62.7701C162.799 63.1807 163.11 64.1013 163.406 65.5318C163.781 62.8431 164.397 60.589 165.256 58.7695C166.133 56.92 167.122 55.4927 168.222 54.4877C169.316 53.4594 170.379 52.7946 171.407 52.4934C172.086 52.2948 172.619 52.2905 173.005 52.4808C173.409 52.6409 173.659 52.8839 173.755 53.2097C173.886 53.6518 173.802 54.0557 173.503 54.4213C173.221 54.7566 172.683 55.2174 171.891 55.8034C170.979 56.5003 170.168 57.2431 169.461 58.0318C168.771 58.7903 168.164 59.7013 167.64 60.7652C167.139 61.8221 166.718 63.1082 166.378 64.6238C166.032 66.1159 165.774 67.9107 165.607 70.008C165.439 72.1053 165.339 74.6002 165.305 77.4928C165.316 78.0459 165.236 78.4615 165.064 78.7394C164.915 79.0105 164.689 79.1904 164.384 79.2794ZM179.281 75.1844C178.391 75.4447 177.534 75.2532 176.708 74.6099C175.899 73.9364 175.299 72.9365 174.905 71.6101C174.541 70.3766 174.483 69.0659 174.735 67.6777C175.007 66.2827 175.494 64.876 176.193 63.4577C176.891 62.0394 177.711 60.6867 178.653 59.3996C179.587 58.0894 180.56 56.9073 181.569 55.853C182.602 54.7918 183.574 53.9129 184.487 53.216C185.4 52.519 186.159 52.0814 186.769 51.9034C187.095 51.8076 187.386 51.7987 187.638 51.8766C187.881 51.9313 188.052 52.1216 188.15 52.4474C188.211 52.6568 188.188 52.8786 188.08 53.1127C188.102 53.1059 188.125 53.0991 188.15 53.0922C188.663 52.9415 189.011 53.1688 189.189 53.7737C189.252 53.9833 189.297 54.4377 189.326 55.1372C189.348 55.8135 189.395 56.6595 189.467 57.6753C189.538 58.691 189.665 59.8048 189.844 61.0161C190.018 62.2045 190.282 63.3919 190.632 64.5787C190.928 65.5795 191.462 65.9668 192.234 65.7408C193.1 65.4874 193.918 65.0328 194.691 64.3769C195.462 63.7211 196.186 62.9907 196.864 62.1857C197.534 61.3573 198.137 60.5611 198.674 59.7972C199.204 59.01 199.655 58.3467 200.03 57.8072C200.403 57.2678 200.696 56.9673 200.906 56.9056C201.094 56.8509 201.275 56.861 201.45 56.9364C201.624 57.0116 201.749 57.1773 201.825 57.4332C201.894 57.6659 201.784 58.1534 201.496 58.8954C201.207 59.6374 200.789 60.5054 200.245 61.4993C199.701 62.4933 199.055 63.4914 198.309 64.4935C197.564 65.4957 196.756 66.3767 195.888 67.1366C195.02 67.8965 194.13 68.41 193.217 68.6771C192.515 68.8826 191.811 68.8613 191.102 68.6138C190.408 68.336 189.733 67.7249 189.072 66.7803C188.435 65.8289 187.845 64.4341 187.301 62.5956L187.042 61.723C186.453 63.9435 185.758 66.0183 184.957 67.9473C184.178 69.8694 183.306 71.4774 182.341 72.7711C181.401 74.0582 180.38 74.8625 179.281 75.1844ZM186.845 54.612C186.741 54.6927 186.598 54.8105 186.415 54.9651C185.484 55.769 184.541 56.7027 183.584 57.7665C182.651 58.8235 181.765 59.955 180.929 61.1612C180.113 62.3605 179.415 63.564 178.831 64.7714C178.248 65.979 177.844 67.1468 177.618 68.2749C177.393 69.4029 177.417 70.4324 177.693 71.3633C177.783 71.6657 177.909 71.8813 178.074 72.01C178.263 72.1318 178.52 72.1448 178.848 72.0489C179.316 71.9119 179.839 71.443 180.415 70.642C180.985 69.8179 181.57 68.7869 182.169 67.5493C182.793 66.3048 183.385 64.9556 183.946 63.5017C184.507 62.0479 185.018 60.5959 185.479 59.1461C185.963 57.6894 186.357 56.3601 186.664 55.1581C186.709 54.9678 186.769 54.7858 186.845 54.612ZM208.216 66.2585C207.07 66.5941 206 66.6292 205.006 66.3637C204.029 66.0682 203.196 65.5665 202.502 64.8589C201.81 64.1512 201.333 63.3552 201.073 62.471C200.521 60.6092 200.346 58.8146 200.547 57.0869C200.74 55.336 201.153 53.7233 201.784 52.2488C202.432 50.7442 203.159 49.419 203.964 48.2731C204.793 47.1202 205.578 46.2078 206.318 45.5354C207.077 44.8331 207.643 44.4271 208.018 44.3175C208.766 44.0984 209.251 44.3612 209.47 45.1059C209.574 45.4549 209.461 45.9307 209.13 46.533C208.794 47.1122 208.352 47.8104 207.806 48.6277C207.259 49.445 206.69 50.3576 206.099 51.3652C205.5 52.3496 204.979 53.425 204.537 54.5914C204.087 55.7345 203.801 56.9564 203.676 58.2569C203.546 59.5341 203.683 60.8594 204.09 62.2324C204.503 63.6286 205.282 64.1589 206.428 63.8234C207.481 63.5152 208.499 63.0024 209.481 62.285C210.487 61.5606 211.435 60.7267 212.325 59.7834C213.232 58.81 214.085 57.827 214.885 56.8343C215.684 55.8417 216.4 54.9114 217.033 54.0433C217.659 53.1521 218.194 52.4265 218.639 51.8664C219.083 51.3065 219.423 50.9923 219.656 50.9239C220.124 50.7868 220.435 50.9744 220.586 51.4864C220.703 51.8819 220.589 52.4843 220.243 53.2934C219.898 54.1024 219.383 55.0245 218.697 56.0596C218.013 57.0947 217.225 58.1722 216.336 59.292C215.44 60.3888 214.517 61.4306 213.562 62.4178C212.602 63.3818 211.654 64.2155 210.719 64.9193C209.799 65.593 208.966 66.0394 208.216 66.2585ZM239.12 58.691C237.601 59.1361 236.09 59.1863 234.59 58.8415C233.114 58.49 231.692 57.8947 230.324 57.0557C228.982 56.2099 227.72 55.2518 226.539 54.1814C225.374 53.081 224.339 52.0311 223.434 51.032C223.594 53.0333 223.728 54.6501 223.839 55.8821C223.972 57.1072 224.059 58.043 224.097 58.689C224.16 59.3284 224.163 59.7699 224.108 60.0135C224.053 60.2573 223.931 60.4065 223.745 60.4612C223.23 60.6119 222.655 60.4765 222.023 60.0549C221.39 59.6334 220.942 58.9804 220.682 58.0961C220.406 57.1653 220.205 55.884 220.078 54.2522C219.944 52.5971 219.868 50.7483 219.848 48.7059C219.845 46.6332 219.906 44.4785 220.032 42.2416C220.151 39.9814 220.311 37.7725 220.512 35.6151C220.729 33.4274 220.999 31.4143 221.319 29.5757C221.482 28.6682 221.671 28.0569 221.883 27.742C222.117 27.4202 222.445 27.1977 222.867 27.0744C223.545 26.8758 223.977 27.0908 224.163 27.7191C224.231 27.9518 224.237 28.2283 224.179 28.5487C224.146 28.8621 224.109 29.214 224.073 29.6041C223.954 30.7513 223.827 32.0402 223.692 33.4708C223.579 34.8946 223.471 36.3799 223.37 37.9269C223.291 39.4669 223.233 40.9885 223.195 42.4916C223.157 43.9949 223.146 45.3761 223.163 46.6355C223.961 45.6429 224.937 44.5989 226.088 43.5036C227.237 42.4082 228.454 41.3691 229.741 40.3859C231.018 39.3796 232.249 38.5134 233.432 37.7878C234.616 37.0621 235.628 36.576 236.471 36.3295C236.916 36.1992 237.296 36.2396 237.613 36.4504C237.945 36.631 238.16 36.8842 238.257 37.21C238.332 37.4661 238.326 37.746 238.238 38.05C238.167 38.3238 237.925 38.6222 237.512 38.9454C236.127 39.9325 234.755 40.928 233.4 41.9317C232.038 42.912 230.62 43.9595 229.145 45.074C227.686 46.1585 226.109 47.4037 224.416 48.8099C225.327 49.6558 226.368 50.5523 227.537 51.4995C228.7 52.4233 229.904 53.2719 231.151 54.0453C232.388 54.7953 233.6 55.3639 234.781 55.7511C235.956 56.1151 237.035 56.1533 238.018 55.8657C239.304 55.4889 240.466 54.8584 241.501 53.9739C242.536 53.0894 243.441 52.116 244.22 51.0535C245.023 49.9842 245.703 48.976 246.262 48.0285C246.814 47.0577 247.25 46.298 247.57 45.749C247.742 45.4711 247.911 45.2698 248.077 45.1451C248.26 44.9905 248.434 44.8891 248.598 44.8412C248.925 44.7453 249.199 44.8548 249.42 45.1697C249.656 45.4543 249.645 45.8492 249.388 46.3544C249.203 46.7624 248.92 47.3895 248.534 48.2356C248.149 49.0816 247.655 50.0351 247.055 51.0963C246.469 52.1271 245.785 53.1621 244.998 54.2013C244.236 55.2336 243.351 56.1503 242.342 56.9512C241.365 57.7687 240.291 58.3487 239.12 58.691Z" fill="#354B7A"/>
</svg>
