<svg width="37" height="37" viewBox="0 0 37 37" fill="none" xmlns="http://www.w3.org/2000/svg">
<path d="M21.3243 25.5423C21.6427 25.6885 22.0014 25.7219 22.3414 25.637C22.6813 25.5521 22.9822 25.3539 23.1944 25.0751L23.7417 24.3583C24.0289 23.9753 24.4013 23.6645 24.8294 23.4504C25.2576 23.2364 25.7297 23.1249 26.2083 23.1249H30.8333C31.6511 23.1249 32.4354 23.4498 33.0136 24.028C33.5918 24.6062 33.9167 25.3905 33.9167 26.2083V30.8333C33.9167 31.651 33.5918 32.4353 33.0136 33.0135C32.4354 33.5917 31.6511 33.9166 30.8333 33.9166C23.4736 33.9166 16.4153 30.9929 11.2111 25.7888C6.007 20.5847 3.08334 13.5263 3.08334 6.16659C3.08334 5.34883 3.40819 4.56458 3.98643 3.98634C4.56467 3.4081 5.34893 3.08325 6.16668 3.08325H10.7917C11.6094 3.08325 12.3937 3.4081 12.9719 3.98634C13.5502 4.56458 13.875 5.34883 13.875 6.16659V10.7916C13.875 11.2703 13.7636 11.7424 13.5495 12.1705C13.3354 12.5986 13.0246 12.971 12.6417 13.2583L11.9202 13.7994C11.6372 14.0155 11.4377 14.3229 11.3556 14.6694C11.2735 15.0159 11.314 15.3802 11.47 15.7003C13.577 19.9797 17.0422 23.4406 21.3243 25.5423Z" stroke="white" stroke-width="2" stroke-linecap="round" stroke-linejoin="round"/>
</svg>
