<svg width="37" height="37" viewBox="0 0 37 37" fill="none" xmlns="http://www.w3.org/2000/svg">
<path d="M18.0577 6.65991C13.1725 6.65991 8.58513 7.02991 6.14255 7.54733C4.51513 7.91733 3.10739 9.02733 2.81255 10.7299C2.5177 12.5048 2.21997 15.1699 2.21997 18.4999C2.21997 21.8299 2.51482 24.4199 2.88482 26.2699C3.18255 27.8973 4.58739 29.0825 6.21482 29.4525C8.80771 29.9699 13.2448 30.3399 18.13 30.3399C23.0151 30.3399 27.4522 29.9699 30.0422 29.4525C31.6726 29.0825 33.0774 27.9725 33.3722 26.2699C33.67 24.4199 34.04 21.7576 34.1122 18.4276C34.1122 15.0976 33.7422 12.4325 33.3722 10.5825C33.0774 8.95507 31.6726 7.76991 30.0422 7.39991C27.4522 7.02991 22.94 6.65991 18.0577 6.65991ZM18.0577 8.13991C23.3851 8.13991 27.6748 8.58218 29.7474 8.95218C30.8574 9.24991 31.7448 9.98991 31.8922 10.9525C32.3374 13.3199 32.6322 15.8377 32.6322 18.4277C32.56 21.6073 32.19 24.1973 31.8922 26.0473C31.6726 27.4522 30.1926 27.8973 29.7474 28.0477C27.0822 28.5651 22.6422 28.9322 18.2022 28.9322C13.7622 28.9322 9.24997 28.6373 6.65997 28.0477C5.54997 27.7499 4.66255 27.0099 4.51513 26.0474C3.92255 23.9748 3.69997 21.2373 3.69997 18.4999C3.69997 15.0948 3.9977 12.5799 4.29255 11.0277C4.51513 9.61993 6.06739 9.17476 6.43739 9.02735C8.87997 8.50993 13.3951 8.13991 18.0577 8.13991ZM14.06 12.5799V24.4199L24.42 18.4999L14.06 12.5799ZM15.54 15.0976L21.46 18.4999L15.54 21.9022V15.0976Z" fill="white"/>
</svg>
